<svg width="262" height="192" viewBox="0 0 262 192" fill="none" xmlns="http://www.w3.org/2000/svg">
<path d="M229.25 26.1447H70.1055L68.5703 21.2426C66.8646 14.9787 63.0267 9.87234 57.0566 5.9234C51.0866 1.97447 44.0078 0 35.8203 0H10.7461C7.67578 0 5.11719 0.817021 3.07031 2.45106C1.02344 4.08511 0 6.26383 0 8.98723C0 11.4383 1.02344 13.4809 3.07031 15.1149C5.11719 16.7489 7.67578 17.566 10.7461 17.566H35.8203C42.3021 17.566 46.0547 19.8808 47.0781 24.5106L72.1523 129.089C74.1992 134.809 78.2077 139.438 84.1777 142.979C90.1478 146.519 96.7148 148.289 103.879 148.289H207.246C210.658 148.289 213.387 147.472 215.434 145.838C217.48 144.204 218.504 142.162 218.504 139.711C218.504 133.719 214.751 130.723 207.246 130.723H103.879C99.1029 130.723 95.6914 129.089 93.6445 125.821L92.6211 122.145H202.129C208.952 122.145 215.178 120.511 220.807 117.243C226.436 113.974 230.273 109.753 232.32 104.579L262 54.3319V52.2894C262 44.9362 258.844 38.7404 252.533 33.7021C246.222 28.6638 238.461 26.1447 229.25 26.1447ZM98.25 104.579H88.5273L74.1992 43.7106H98.25V104.579ZM141.746 104.579H120.254V43.7106H141.746V104.579ZM185.754 104.579H163.75V43.7106H185.754V104.579ZM212.875 97.634V98.4511C211.852 101.174 209.975 102.945 207.246 103.762V43.7106H229.25C235.391 43.7106 238.973 46.0255 239.996 50.6553L212.875 97.634ZM131 174.434C131 179.336 128.868 183.489 124.604 186.894C120.339 190.298 115.137 192 108.996 192C103.197 192 98.1647 190.298 93.9004 186.894C89.6361 183.489 87.5039 179.336 87.5039 174.434C87.5039 169.532 89.6361 165.379 93.9004 161.974C98.1647 158.57 103.197 156.868 108.996 156.868C115.137 156.868 120.339 158.57 124.604 161.974C128.868 165.379 131 169.532 131 174.434ZM218.504 174.434C218.504 179.336 216.372 183.489 212.107 186.894C207.843 190.298 202.641 192 196.5 192C190.359 192 185.157 190.298 180.893 186.894C176.628 183.489 174.496 179.336 174.496 174.434C174.496 169.532 176.628 165.379 180.893 161.974C185.157 158.57 190.359 156.868 196.5 156.868C202.641 156.868 207.843 158.57 212.107 161.974C216.372 165.379 218.504 169.532 218.504 174.434Z" fill="#78290F"/>
</svg>
