<svg width="252" height="219" viewBox="0 0 252 219" fill="none" xmlns="http://www.w3.org/2000/svg">
<path d="M223.59 49.3006C222.04 47.0825 219.98 45.2715 217.584 44.0208C215.188 42.77 212.527 42.1164 209.826 42.1152H168V16.8461C167.995 12.3798 166.223 8.09782 163.074 4.93965C159.924 1.78148 155.654 0.00501615 151.2 0H16.8C12.3459 0.00501615 8.07566 1.78148 4.92613 4.93965C1.7766 8.09782 0.00500243 12.3798 0 16.8461V189.519H27.868C29.344 197.785 33.6719 205.268 40.0944 210.657C46.517 216.047 54.6251 219 63 219C71.3748 219 79.483 216.047 85.9056 210.657C92.3281 205.268 96.656 197.785 98.1319 189.519H153.868C155.344 197.785 159.672 205.268 166.094 210.657C172.517 216.047 180.625 219 189 219C197.375 219 205.483 216.047 211.906 210.657C218.328 205.268 222.656 197.785 224.132 189.519H252V93.9812C252.004 91.3884 251.209 88.8577 249.723 86.7358L223.59 49.3006ZM16.7895 16.8461H151.2V109.5H16.8L16.7895 16.8461ZM63 202.153C59.2619 202.153 55.6078 201.042 52.4997 198.959C49.3916 196.877 46.9692 193.917 45.5387 190.454C44.1082 186.991 43.7339 183.18 44.4632 179.504C45.1924 175.828 46.9925 172.451 49.6357 169.8C52.2789 167.15 55.6465 165.345 59.3128 164.614C62.979 163.882 66.7792 164.258 70.2327 165.692C73.6862 167.126 76.638 169.556 78.7148 172.672C80.7915 175.789 81.9 179.453 81.9 183.201C81.8944 188.226 79.9014 193.043 76.3582 196.596C72.8149 200.149 68.0109 202.148 63 202.153ZM189 202.153C185.262 202.153 181.608 201.042 178.5 198.959C175.392 196.877 172.969 193.917 171.539 190.454C170.108 186.991 169.734 183.18 170.463 179.504C171.192 175.828 172.992 172.451 175.636 169.8C178.279 167.15 181.647 165.345 185.313 164.614C188.979 163.882 192.779 164.258 196.233 165.692C199.686 167.126 202.638 169.556 204.715 172.672C206.792 175.789 207.9 179.453 207.9 183.201C207.894 188.226 205.901 193.043 202.358 196.596C198.815 200.149 194.011 202.148 189 202.153ZM235.2 172.672H223.122C220.877 165.355 216.352 158.952 210.21 154.403C204.069 149.855 196.635 147.4 189 147.4C181.365 147.4 173.931 149.855 167.79 154.403C161.648 158.952 157.123 165.355 154.878 172.672H97.1218C94.8769 165.355 90.3515 158.952 84.2102 154.403C78.0688 149.855 70.635 147.4 63 147.4C55.365 147.4 47.9312 149.855 41.7898 154.403C35.6485 158.952 31.1231 165.355 28.8781 172.672H16.8V126.346H235.2V172.672ZM235.2 109.5H168V58.9613H209.826L235.2 95.3089V109.5Z" fill="#78290F"/>
</svg>
